<?xml version="1.0" encoding="utf-8"?>
<!-- Generator: Adobe Illustrator 23.0.6, SVG Export Plug-In . SVG Version: 6.00 Build 0)  -->
<svg version="1.1" id="Layer_1" xmlns="http://www.w3.org/2000/svg" xmlns:xlink="http://www.w3.org/1999/xlink" x="0px" y="0px"
	 viewBox="0 0 16 16" style="enable-background:new 0 0 16 16;" xml:space="preserve">
<style type="text/css">
	.st0{fill:none;}
	.st1{fill:#FFFFFF;}
</style>
<g>
	<path d="M4.2-16.5c0.1,0,0.2,0,0.3,0.1s0.1,0.2,0.1,0.3v1.9h1.1c0.1,0,0.2,0,0.3,0.1s0.1,0.2,0.1,0.3s0,0.2-0.1,0.3
		s-0.2,0.1-0.2,0.1h-3c-0.1,0-0.2,0-0.3-0.1s-0.1-0.2-0.1-0.3s0-0.2,0.1-0.3s0.2-0.1,0.3-0.1h1.1v-1.9c0-0.1,0-0.2,0.1-0.3
		S4.2-16.5,4.2-16.5z M4.6-7.9c0,0.1,0,0.2-0.1,0.3S4.3-7.5,4.2-7.5S4.1-7.5,4-7.6S3.9-7.8,3.9-7.9v-4.9h0.8L4.6-7.9L4.6-7.9z
		 M8-16.5c0.1,0,0.2,0,0.3,0.1s0.1,0.2,0.1,0.3v5.6h1.1c0.1,0,0.2,0,0.3,0.1s0.1,0.2,0.1,0.3s0,0.2-0.1,0.3S9.6-9.8,9.5-9.8h-3
		c-0.1,0-0.2,0-0.3-0.1S6.1-10,6.1-10.1s0-0.2,0.1-0.3s0.2-0.1,0.3-0.1h1.1v-5.6c0-0.1,0-0.2,0.1-0.3S7.9-16.5,8-16.5z M8.4-7.9
		c0,0.1,0,0.2-0.1,0.3S8.1-7.5,8-7.5s-0.2,0-0.3-0.1S7.6-7.8,7.6-7.9V-9h0.8L8.4-7.9L8.4-7.9z M11.8-16.5c0.1,0,0.2,0,0.3,0.1
		s0.1,0.2,0.1,0.3v3.4h1.1c0.1,0,0.2,0,0.3,0.1s0.1,0.2,0.1,0.3s0,0.2-0.1,0.3S13.4-12,13.2-12h-3c-0.1,0-0.2,0-0.3-0.1
		s-0.1-0.2-0.1-0.3s0-0.2,0.1-0.3s0.2-0.1,0.3-0.1h1.1v-3.4c0-0.1,0-0.2,0.1-0.3S11.6-16.5,11.8-16.5z M12.1-7.9
		c0,0.1,0,0.2-0.1,0.3s-0.2,0.1-0.3,0.1s-0.2,0-0.3-0.1s-0.1-0.2-0.1-0.3v-3.4h0.8L12.1-7.9L12.1-7.9z"/>
</g>
<rect x="25" y="1" class="st0" width="12" height="13"/>
<text transform="matrix(1 0 0 1 25 13)" style="font-family:'TeamsAssets-Light'; font-size:12px;"></text>
<g>
	<path class="st1" d="M12.9,7.6c0.1,0,0.2,0,0.3,0.1s0.1,0.2,0.1,0.3c0,0.1,0,0.2-0.1,0.3S13,8.4,12.9,8.4H3.1c-0.1,0-0.2,0-0.3-0.1
		S2.8,8.1,2.8,8s0-0.2,0.1-0.3S3,7.6,3.1,7.6L12.9,7.6L12.9,7.6z"/>
</g>
<g>
	<path d="M56,2.8c0.1,0,0.2,0,0.3,0.1s0.1,0.2,0.1,0.3v4.5h4.5c0.1,0,0.2,0,0.3,0.1s0.1,0.2,0.1,0.3c0,0.1,0,0.2-0.1,0.3
		S61,8.4,60.9,8.4h-4.5v4.5c0,0.1,0,0.2-0.1,0.3s-0.2,0.1-0.3,0.1s-0.2,0-0.3-0.1s-0.1-0.2-0.1-0.3V8.4h-4.5c-0.1,0-0.2,0-0.3-0.1
		S50.8,8.1,50.8,8s0-0.2,0.1-0.3s0.2-0.1,0.3-0.1h4.5V3.1c0-0.1,0-0.2,0.1-0.3S55.9,2.8,56,2.8z"/>
</g>
</svg>
