<?xml version="1.0" encoding="utf-8"?>
<!-- Generator: Adobe Illustrator 23.0.6, SVG Export Plug-In . SVG Version: 6.00 Build 0)  -->
<svg version="1.1" id="Layer_1" xmlns="http://www.w3.org/2000/svg" xmlns:xlink="http://www.w3.org/1999/xlink" x="0px" y="0px"
	 viewBox="0 0 16 16" style="enable-background:new 0 0 16 16;" xml:space="preserve">
<style type="text/css">
	.st0{fill:#FFFFFF;}
</style>
<g>
	<path class="st0" d="M8.8,3.9v8.2c0,0.1,0,0.2-0.1,0.3s-0.2,0.1-0.3,0.1c-0.1,0-0.1,0-0.2-0.1l-2.9-2.2H2.9c-0.2,0-0.3-0.1-0.5-0.1
		S2.3,9.9,2.2,9.7C2.1,9.4,2.1,9.2,2,8.9S2,8.3,2,8s0-0.6,0-0.9s0.1-0.6,0.2-0.8c0-0.2,0.1-0.3,0.3-0.4s0.3-0.1,0.5-0.1h2.3l2.9-2.2
		c0.1-0.1,0.2-0.1,0.2-0.1c0.1,0,0.2,0,0.3,0.1S8.8,3.8,8.8,3.9z M2.9,6.5C2.9,6.8,2.8,7,2.8,7.2s0,0.5,0,0.8s0,0.5,0,0.8
		s0.1,0.5,0.2,0.8l2.4,0c0.1,0,0.2,0,0.2,0.1L8,11.4V4.6L5.6,6.4c-0.1,0-0.2,0.1-0.2,0.1H2.9z M11.8,8c0,0.2,0,0.5-0.1,0.7
		s-0.1,0.5-0.2,0.8s-0.2,0.5-0.4,0.7s-0.3,0.4-0.5,0.6c0,0-0.1,0.1-0.1,0.1s-0.1,0-0.1,0c-0.1,0-0.2,0-0.3-0.1S10,10.6,10,10.5
		c0-0.1,0-0.1,0-0.1s0.1-0.1,0.1-0.1c0.1-0.1,0.1-0.1,0.2-0.2s0.1-0.1,0.2-0.2c0.2-0.3,0.4-0.6,0.4-0.9S11,8.3,11,8
		c0-0.4-0.1-0.8-0.2-1.2c-0.1-0.2-0.2-0.4-0.3-0.5S10.2,6,10.1,5.8c0,0-0.1-0.1-0.1-0.1s0-0.1,0-0.1c0-0.1,0-0.2,0.1-0.3
		s0.2-0.1,0.3-0.1c0.1,0,0.1,0,0.1,0s0.1,0.1,0.1,0.1c0.2,0.2,0.4,0.3,0.5,0.6s0.3,0.4,0.4,0.7s0.2,0.5,0.2,0.8S11.8,7.8,11.8,8z
		 M14,8c0,0.4,0,0.8-0.1,1.2s-0.2,0.8-0.4,1.2c-0.1,0.1-0.1,0.3-0.2,0.5s-0.2,0.4-0.3,0.6s-0.2,0.4-0.4,0.5s-0.3,0.3-0.4,0.4
		c-0.1,0-0.1,0.1-0.1,0.1s-0.1,0-0.1,0c-0.1,0-0.2,0-0.3-0.1s-0.1-0.2-0.1-0.3c0-0.1,0-0.1,0-0.1s0.1-0.1,0.1-0.1
		c0-0.1,0.1-0.1,0.1-0.1s0.1-0.1,0.1-0.1c0.4-0.5,0.8-1.1,1-1.7s0.3-1.2,0.3-1.9c0-0.3,0-0.6-0.1-0.9s-0.1-0.6-0.2-0.9
		s-0.2-0.6-0.4-0.9S12.2,4.8,12,4.5c-0.1-0.1-0.1-0.1-0.2-0.2s-0.1-0.1-0.2-0.2c0,0-0.1-0.1-0.1-0.1s0-0.1,0-0.1
		c0-0.1,0-0.2,0.1-0.3s0.2-0.1,0.3-0.1c0.1,0,0.1,0,0.1,0s0.1,0,0.1,0.1c0.1,0.1,0.3,0.2,0.4,0.4s0.3,0.3,0.4,0.5s0.2,0.4,0.3,0.6
		s0.2,0.4,0.2,0.5C13.8,6.4,14,7.2,14,8z"/>
</g>
</svg>
